<svg xmlns="http://www.w3.org/2000/svg" width="1200" height="1200" viewBox="0 0 1200 1200">
  <defs>
    <radialGradient id="glow" cx="0.5" cy="0.5" r="0.5">
      <stop offset="0.35" stop-color="#FF5500" stop-opacity="0.20"/>
      <stop offset="0.72" stop-color="#FF5500" stop-opacity="0.06"/>
      <stop offset="1" stop-color="#FF5500" stop-opacity="0"/>
    </radialGradient>
  </defs>
  <rect width="1200" height="1200" fill="#08080A"/>
  <g transform="translate(0,285)">
  <circle cx="900" cy="315" r="330" fill="url(#glow)"/>
  <g transform="translate(900,315) scale(2.05)">
    <ellipse cx="0" cy="0" rx="119" ry="38" transform="rotate(45)" fill="none" stroke="#8585A0" stroke-width="3.4"/>
    <ellipse cx="0" cy="0" rx="119" ry="38" transform="rotate(-45)" fill="none" stroke="#8585A0" stroke-width="3.4"/>
    <circle r="100" fill="#FF5500"/>
    <path d="M -84.4 -53.7 A 119 38 45 0 0 0 51.2 A 119 38 -45 0 0 84.4 -53.7 A 100 100 0 0 0 -84.4 -53.7 Z M 0 51.2 A 119 38 45 0 0 53.7 84.4 A 100 100 0 0 1 -53.7 84.4 A 119 38 -45 0 0 0 51.2 Z" fill="#08080A"/>
  </g>
  <rect x="90" y="176" width="96" height="4" fill="#FF5500"/>
  <text x="88" y="298" font-family="Helvetica Neue, Helvetica, Arial" font-weight="700" font-size="96" letter-spacing="-3" fill="#EDECF0">Drayker</text>
  <text x="92" y="362" font-family="Helvetica Neue, Helvetica, Arial" font-size="30" fill="#8585A0">Open infrastructure, built by the whole world.</text>
  <text x="92" y="418" font-family="SF Mono, Menlo, monospace" font-size="19" letter-spacing="1.6" fill="#6A6A80">DFM PROTOCOL &#183; Dk &#183; NON-PROFIT &#183; VOLUNTARY</text>
  </g>
</svg>